# xmcd
#
# Track frame offsets: 
#        150
#        13725
#        30637
#        45621
#        64756
#        93011
#        111645
#        130467
#        145180
#        169668
#        181755
#        198416
#
# Disc length: 2995 seconds
#
# Revision: 0
# Processed by: cddbd v1.5.2PL0 Copyright (c) Steve Scherf et al.
# Submitted via: ExactAudioCopy v1.0b1
#
DISCID=a30bb10c
DTITLE=Lewis Floyd Henry - One Man and His 30W Pram
DYEAR=2011
DGENRE=Blues
TTITLE0=Sacred Gardens
TTITLE1=Rickety Ol' Rollercoaster
TTITLE2=Man's Ruin
TTITLE3=Guardian Angels
TTITLE4=Good News
TTITLE5=Short Space Of Time
TTITLE6=Sentimental Values
TTITLE7=Magic Carpet
TTITLE8=The Devil's Workin'
TTITLE9=Went To A Party
TTITLE10=Way Out There
TTITLE11=Miss Dual Carriageway
EXTD=
EXTT0=
EXTT1=
EXTT2=
EXTT3=
EXTT4=
EXTT5=
EXTT6=
EXTT7=
EXTT8=
EXTT9=
EXTT10=
EXTT11=
PLAYORDER=
